<svg width="327" height="170" viewBox="0 0 327 170" fill="none" xmlns="http://www.w3.org/2000/svg">
<rect width="327" height="170" rx="20" fill="white"/>
<mask id="mask0_136_1326" style="mask-type:alpha" maskUnits="userSpaceOnUse" x="0" y="0" width="327" height="170">
<rect y="2.28882e-05" width="327" height="170" rx="20" fill="white"/>
</mask>
<g mask="url(#mask0_136_1326)">
<g opacity="0.2">
<path d="M159 24.7957C159 4.22855 175.673 -12.4444 196.24 -12.4444C216.807 -12.4444 233.48 4.22854 233.48 24.7957V62.0359H196.24C175.673 62.0359 159 45.3629 159 24.7957Z" fill="#A7FED9"/>
<path d="M293.065 37.2091C293.065 23.4976 281.949 12.3823 268.238 12.3823C254.526 12.3823 243.411 23.4977 243.411 37.2091V62.0358H268.238C281.949 62.0358 293.065 50.9205 293.065 37.2091Z" fill="#EBB3FF"/>
<path d="M204.93 88.7246C204.93 96.6087 211.321 103 219.205 103C227.089 103 233.48 96.6087 233.48 88.7246V74.4492H219.205C211.321 74.4492 204.93 80.8405 204.93 88.7246Z" fill="#CCCCCC"/>
</g>
</g>
<path d="M302.933 28.1435L302.944 47.5016C302.944 49.7854 301.079 51.656 298.814 51.656L272.173 51.6778C269.886 51.6778 268.022 49.8072 268.022 47.5342L268 28.1761C268 25.8814 269.864 24.0218 272.14 24.0218L298.793 24C301.069 24 302.933 25.8488 302.933 28.1435Z" fill="url(#paint0_linear_136_1326)"/>
<path d="M281.472 47.9801C281.321 47.9801 281.18 47.904 281.115 47.7626C281.017 47.5669 281.093 47.3167 281.288 47.2189C281.873 46.9144 282.665 46.3488 283.131 45.3809C283.716 44.1411 283.564 42.7926 283.315 42.673C283.25 42.6403 283.011 42.7708 282.86 42.847C282.48 43.0427 281.949 43.3146 281.342 43.0971C280.746 42.8905 280.454 42.3576 280.313 42.0966C279.391 40.4109 279.11 36.039 280.074 33.8639C280.399 33.1462 280.833 32.7112 281.375 32.5806C281.928 32.4501 282.383 32.6785 282.741 32.8743C283.033 33.0265 283.185 33.0918 283.282 33.0374C283.662 32.809 283.651 31.417 283.12 30.3186C282.654 29.3398 281.863 28.7743 281.277 28.4806C281.082 28.3828 280.995 28.1326 281.104 27.9369C281.201 27.7411 281.451 27.6541 281.646 27.7629C282.339 28.1218 283.293 28.796 283.846 29.9814C284.399 31.1451 284.659 33.157 283.694 33.7443C283.207 34.0379 282.741 33.7987 282.372 33.6138C282.09 33.4724 281.819 33.331 281.559 33.3963C281.201 33.4833 280.963 33.8857 280.811 34.2119C279.966 36.1151 280.215 40.2478 281.017 41.7268C281.158 41.9769 281.321 42.2488 281.602 42.3467C281.873 42.4446 282.134 42.325 282.491 42.1401C282.849 41.9552 283.239 41.7594 283.662 41.9552C284.572 42.4011 284.507 44.3478 283.857 45.7398C283.293 46.9252 282.35 47.5995 281.657 47.9584C281.592 47.9693 281.527 47.9801 281.472 47.9801Z" fill="#666666"/>
<path d="M280.248 34.5926H272.975C272.747 34.5926 272.574 34.4077 272.574 34.1902C272.574 33.9727 272.747 33.7878 272.964 33.7878H280.237C280.464 33.7878 280.638 33.9727 280.638 34.1902C280.649 34.4077 280.475 34.5926 280.248 34.5926Z" fill="#666666"/>
<path d="M280.248 41.9008H272.975C272.747 41.9008 272.574 41.7159 272.574 41.4984C272.574 41.2701 272.758 41.096 272.975 41.096H280.248C280.475 41.096 280.649 41.2809 280.649 41.4984C280.66 41.7159 280.475 41.9008 280.248 41.9008Z" fill="#666666"/>
<path d="M289.959 47.9693C289.894 47.9693 289.829 47.9584 289.775 47.9258C289.081 47.5669 288.127 46.8926 287.575 45.7072C286.913 44.3151 286.859 42.3685 287.759 41.9226C288.182 41.7159 288.583 41.9226 288.929 42.0966C289.298 42.2815 289.558 42.4011 289.818 42.3032C290.122 42.1945 290.295 41.8791 290.403 41.6833C291.205 40.2043 291.444 36.0608 290.599 34.1684C290.447 33.8422 290.208 33.4289 289.851 33.3528C289.634 33.2984 289.493 33.0809 289.547 32.8634C289.601 32.6459 289.818 32.5154 290.035 32.5589C290.577 32.6894 291.01 33.1135 291.336 33.8313C292.311 36.0064 292.029 40.3891 291.108 42.0639C290.967 42.325 290.674 42.8578 290.078 43.0645C289.471 43.282 288.94 43.0101 288.561 42.8143C288.409 42.7382 288.171 42.6186 288.106 42.6403C287.867 42.76 287.705 44.1085 288.301 45.3483C288.767 46.3271 289.558 46.8926 290.143 47.1862C290.338 47.2841 290.425 47.5342 290.317 47.73C290.252 47.8931 290.111 47.9693 289.959 47.9693Z" fill="#666666"/>
<path d="M288.333 32.9613C288.16 32.9613 288.008 32.8525 287.954 32.6894C287.087 30.0793 289.114 28.0674 289.764 27.7411C289.959 27.6324 290.208 27.7194 290.306 27.9151C290.403 28.1109 290.328 28.361 290.132 28.4589C289.84 28.6111 287.976 30.2098 288.713 32.4284C288.788 32.6459 288.669 32.8743 288.452 32.9395C288.42 32.9613 288.377 32.9613 288.333 32.9613Z" fill="#666666"/>
<path d="M298.446 34.5817H291.173C290.945 34.5817 290.772 34.3968 290.772 34.1793C290.772 33.9618 290.956 33.7769 291.173 33.7769H298.446C298.673 33.7769 298.847 33.9618 298.847 34.1793C298.847 34.3968 298.662 34.5817 298.446 34.5817Z" fill="#666666"/>
<path d="M298.446 41.8791H291.173C290.945 41.8791 290.772 41.6942 290.772 41.4767C290.772 41.2483 290.956 41.0743 291.173 41.0743H298.446C298.673 41.0743 298.847 41.2592 298.847 41.4767C298.847 41.7051 298.673 41.8791 298.446 41.8791Z" fill="#666666"/>
<path d="M244.614 128.452H250.466V129.53H245.79V132.582H250.13V133.632H245.79V136.922H250.606V138H244.614V128.452ZM254.603 133.142L251.845 128.452H253.175L255.429 132.33L257.669 128.452H258.999L256.171 133.254L259.013 138H257.655L255.359 134.01L253.175 138H251.845L254.603 133.142ZM264.911 134.5C264.911 134.836 264.962 135.163 265.065 135.48C265.167 135.788 265.321 136.059 265.527 136.292C265.732 136.525 265.979 136.712 266.269 136.852C266.558 136.992 266.894 137.062 267.277 137.062C267.65 137.062 267.981 136.992 268.271 136.852C268.56 136.712 268.803 136.525 268.999 136.292C269.204 136.059 269.358 135.788 269.461 135.48C269.563 135.163 269.615 134.836 269.615 134.5C269.615 134.155 269.563 133.828 269.461 133.52C269.358 133.203 269.204 132.927 268.999 132.694C268.803 132.461 268.56 132.279 268.271 132.148C267.981 132.008 267.65 131.938 267.277 131.938C266.894 131.938 266.558 132.008 266.269 132.148C265.979 132.279 265.732 132.461 265.527 132.694C265.321 132.927 265.167 133.203 265.065 133.52C264.962 133.828 264.911 134.155 264.911 134.5ZM263.721 134.5C263.721 133.987 263.809 133.506 263.987 133.058C264.164 132.61 264.411 132.223 264.729 131.896C265.046 131.56 265.419 131.299 265.849 131.112C266.287 130.916 266.763 130.818 267.277 130.818C267.781 130.818 268.247 130.916 268.677 131.112C269.115 131.299 269.489 131.56 269.797 131.896C270.114 132.223 270.361 132.61 270.539 133.058C270.716 133.506 270.805 133.987 270.805 134.5C270.805 135.004 270.716 135.48 270.539 135.928C270.361 136.376 270.114 136.768 269.797 137.104C269.489 137.44 269.115 137.706 268.677 137.902C268.247 138.089 267.781 138.182 267.277 138.182C266.763 138.182 266.287 138.089 265.849 137.902C265.419 137.706 265.046 137.44 264.729 137.104C264.411 136.768 264.164 136.376 263.987 135.928C263.809 135.48 263.721 135.004 263.721 134.5ZM278.19 129.32C276.939 129.712 275.969 130.183 275.278 130.734C274.587 131.275 274.116 131.891 273.864 132.582L274.354 132.54C274.503 132.521 274.671 132.507 274.858 132.498C275.045 132.489 275.245 132.484 275.46 132.484C275.824 132.484 276.188 132.535 276.552 132.638C276.916 132.731 277.238 132.89 277.518 133.114C277.807 133.329 278.041 133.613 278.218 133.968C278.405 134.323 278.498 134.761 278.498 135.284C278.498 135.732 278.414 136.133 278.246 136.488C278.087 136.843 277.868 137.146 277.588 137.398C277.308 137.65 276.977 137.846 276.594 137.986C276.221 138.117 275.824 138.182 275.404 138.182C274.471 138.182 273.747 137.879 273.234 137.272C272.73 136.656 272.478 135.648 272.478 134.248C272.478 133.595 272.562 133.007 272.73 132.484C272.907 131.961 273.136 131.499 273.416 131.098C273.705 130.687 274.032 130.333 274.396 130.034C274.769 129.726 275.152 129.465 275.544 129.25C275.945 129.026 276.342 128.839 276.734 128.69C277.135 128.541 277.504 128.419 277.84 128.326L278.19 129.32ZM275.488 137.202C275.712 137.202 275.931 137.169 276.146 137.104C276.37 137.039 276.566 136.931 276.734 136.782C276.911 136.633 277.051 136.441 277.154 136.208C277.257 135.965 277.308 135.667 277.308 135.312C277.308 134.705 277.14 134.248 276.804 133.94C276.468 133.623 275.964 133.464 275.292 133.464C275.077 133.464 274.872 133.469 274.676 133.478C274.489 133.487 274.172 133.515 273.724 133.562C273.677 133.991 273.659 134.262 273.668 134.374C273.696 135.354 273.855 136.073 274.144 136.53C274.433 136.978 274.881 137.202 275.488 137.202ZM284.823 126.1L285.873 126.492L280.623 140.926L279.573 140.534L284.823 126.1ZM286.776 137.468C287.541 136.861 288.227 136.269 288.834 135.69C289.095 135.447 289.347 135.195 289.59 134.934C289.842 134.673 290.066 134.416 290.262 134.164C290.458 133.912 290.612 133.674 290.724 133.45C290.845 133.217 290.906 133.007 290.906 132.82C290.906 132.521 290.808 132.279 290.612 132.092C290.425 131.896 290.052 131.798 289.492 131.798C289.202 131.798 288.922 131.821 288.652 131.868C288.381 131.915 288.138 131.961 287.924 132.008C287.672 132.073 287.429 132.143 287.196 132.218L286.86 131.322C287.102 131.229 287.378 131.145 287.686 131.07C287.938 131.005 288.232 130.949 288.568 130.902C288.913 130.846 289.277 130.818 289.66 130.818C289.968 130.818 290.266 130.851 290.556 130.916C290.854 130.972 291.116 131.075 291.34 131.224C291.573 131.364 291.755 131.555 291.886 131.798C292.026 132.041 292.096 132.349 292.096 132.722C292.096 132.937 292.049 133.165 291.956 133.408C291.862 133.641 291.741 133.879 291.592 134.122C291.452 134.355 291.284 134.593 291.088 134.836C290.901 135.069 290.71 135.293 290.514 135.508C290.056 136.012 289.534 136.511 288.946 137.006C289.17 136.997 289.403 136.987 289.646 136.978C289.86 136.969 290.103 136.964 290.374 136.964C290.654 136.955 290.943 136.95 291.242 136.95H292.306V138H286.776V137.468ZM299.688 129.32C298.438 129.712 297.467 130.183 296.776 130.734C296.086 131.275 295.614 131.891 295.362 132.582L295.852 132.54C296.002 132.521 296.17 132.507 296.356 132.498C296.543 132.489 296.744 132.484 296.958 132.484C297.322 132.484 297.686 132.535 298.05 132.638C298.414 132.731 298.736 132.89 299.016 133.114C299.306 133.329 299.539 133.613 299.716 133.968C299.903 134.323 299.996 134.761 299.996 135.284C299.996 135.732 299.912 136.133 299.744 136.488C299.586 136.843 299.366 137.146 299.086 137.398C298.806 137.65 298.475 137.846 298.092 137.986C297.719 138.117 297.322 138.182 296.902 138.182C295.969 138.182 295.246 137.879 294.732 137.272C294.228 136.656 293.976 135.648 293.976 134.248C293.976 133.595 294.06 133.007 294.228 132.484C294.406 131.961 294.634 131.499 294.914 131.098C295.204 130.687 295.53 130.333 295.894 130.034C296.268 129.726 296.65 129.465 297.042 129.25C297.444 129.026 297.84 128.839 298.232 128.69C298.634 128.541 299.002 128.419 299.338 128.326L299.688 129.32ZM296.986 137.202C297.21 137.202 297.43 137.169 297.644 137.104C297.868 137.039 298.064 136.931 298.232 136.782C298.41 136.633 298.55 136.441 298.652 136.208C298.755 135.965 298.806 135.667 298.806 135.312C298.806 134.705 298.638 134.248 298.302 133.94C297.966 133.623 297.462 133.464 296.79 133.464C296.576 133.464 296.37 133.469 296.174 133.478C295.988 133.487 295.67 133.515 295.222 133.562C295.176 133.991 295.157 134.262 295.166 134.374C295.194 135.354 295.353 136.073 295.642 136.53C295.932 136.978 296.38 137.202 296.986 137.202Z" fill="#1D1D21"/>
<path d="M67.6125 26.5531C66.2161 26.0483 64.7417 25.7938 63.2569 25.8012C58.4625 25.8012 55.0744 28.2237 55.0538 31.6906C55.0144 34.2387 57.4556 35.675 59.3006 36.5337C61.1963 37.4131 61.83 37.9606 61.8206 38.7406C61.8112 39.9425 60.3056 40.4787 58.92 40.4787C56.9944 40.4787 55.95 40.2162 54.3394 39.5412L53.7413 39.2581L53.0588 43.2631C54.2306 43.7412 56.3306 44.1612 58.4981 44.2006C63.6056 44.2006 66.9356 41.7987 66.9731 38.0956C67.0125 36.065 65.7056 34.5237 62.9212 33.2525C61.2412 32.4331 60.1894 31.8744 60.1894 31.0344C60.1894 30.2919 61.0875 29.5119 62.9625 29.5119C64.2068 29.4807 65.4439 29.71 66.5944 30.185L67.0537 30.3894L67.7269 26.5325L67.6125 26.5531ZM80.0756 26.1331H76.3256C75.1537 26.1331 74.2837 26.4462 73.7663 27.6087L66.5588 43.9456H71.6569L72.6844 41.27L78.9037 41.2794C79.0594 41.9037 79.4981 43.9437 79.4981 43.9437H84L80.0756 26.1331ZM48.15 25.9869H53.0044L49.9669 43.8069H45.1125L48.15 25.9775V25.9869ZM35.8069 35.8006L36.3038 38.2812L41.0588 26.1331H46.2056L38.5481 43.9156H33.4237L29.2238 28.8575C29.1916 28.7324 29.1342 28.6152 29.0553 28.513C28.9763 28.4108 28.8773 28.3258 28.7644 28.2631C27.2557 27.4784 25.6553 26.8845 24 26.495L24.0581 26.1219H31.89C32.9456 26.1612 33.8044 26.495 34.0969 27.6275L35.8069 35.81V35.8006ZM74.0681 37.6269L76.0125 32.6375C75.9825 32.6844 76.4119 31.6119 76.6556 30.9369L76.9875 32.4687L78.1125 37.6156H74.0681V37.6269Z" fill="#1D1D21"/>
<path d="M28.048 96.088H29.712L33.456 107H32.064L31.104 104.088H26.672L25.696 107H24.304L28.048 96.088ZM30.672 102.808L28.912 97.368H28.864L27.088 102.808H30.672ZM33.8862 98.952H35.2942L37.2462 104.632L37.5982 105.896H37.6142L37.9822 104.632L40.0623 98.952H41.4062L38.2863 107H36.8462L33.8862 98.952ZM47.4282 103.304C47.2149 103.315 47.0122 103.325 46.8202 103.336C46.6282 103.347 46.4362 103.363 46.2442 103.384C46.0629 103.395 45.8976 103.411 45.7482 103.432C44.9802 103.528 44.4362 103.699 44.1162 103.944C43.7962 104.179 43.6362 104.52 43.6362 104.968C43.6362 105.341 43.7482 105.624 43.9722 105.816C44.2069 105.997 44.5109 106.088 44.8842 106.088C45.3962 106.088 45.8496 106.003 46.2442 105.832C46.6496 105.651 47.0442 105.416 47.4282 105.128V103.304ZM47.4122 106.248C46.9109 106.536 46.4416 106.771 46.0042 106.952C45.5776 107.123 45.1136 107.208 44.6122 107.208C43.8976 107.208 43.3269 107.037 42.9002 106.696C42.4842 106.344 42.2762 105.768 42.2762 104.968C42.2762 104.552 42.3829 104.189 42.5962 103.88C42.8096 103.571 43.0869 103.315 43.4282 103.112C43.7802 102.899 44.1749 102.733 44.6122 102.616C45.0496 102.499 45.4976 102.424 45.9562 102.392C46.1482 102.371 46.3989 102.355 46.7082 102.344C47.0176 102.323 47.2576 102.307 47.4282 102.296C47.4282 101.923 47.4176 101.592 47.3962 101.304C47.3749 101.005 47.3109 100.755 47.2042 100.552C47.0976 100.339 46.9376 100.179 46.7242 100.072C46.5216 99.9653 46.2282 99.912 45.8442 99.912C45.5349 99.912 45.2362 99.9333 44.9482 99.976C44.6602 100.008 44.4042 100.045 44.1802 100.088C43.9136 100.141 43.6682 100.2 43.4442 100.264L43.1882 99.16C43.4549 99.096 43.7429 99.0373 44.0522 98.984C44.3189 98.9307 44.6282 98.888 44.9802 98.856C45.3322 98.8133 45.7109 98.792 46.1162 98.792C46.6602 98.792 47.0976 98.872 47.4282 99.032C47.7696 99.192 48.0309 99.4107 48.2122 99.688C48.4042 99.9547 48.5322 100.264 48.5962 100.616C48.6709 100.957 48.7082 101.32 48.7082 101.704V105.544C48.7082 105.693 48.7082 105.853 48.7082 106.024C48.7189 106.184 48.7296 106.344 48.7402 106.504C48.7616 106.664 48.7829 106.829 48.8042 107L47.5722 107.128L47.4122 106.248ZM51.2839 98.936L52.5639 98.792V107H51.2839V98.936ZM51.0759 96.648C51.0759 96.4027 51.1559 96.2 51.3159 96.04C51.4865 95.8693 51.6945 95.784 51.9399 95.784C52.1959 95.784 52.4092 95.8693 52.5799 96.04C52.7612 96.2 52.8519 96.4027 52.8519 96.648C52.8519 96.8933 52.7612 97.1013 52.5799 97.272C52.4092 97.432 52.1959 97.512 51.9399 97.512C51.6945 97.512 51.4865 97.432 51.3159 97.272C51.1559 97.1013 51.0759 96.8933 51.0759 96.648ZM55.182 95.016L56.462 94.872V107H55.182V95.016ZM63.5601 103.304C63.3468 103.315 63.1441 103.325 62.9521 103.336C62.7601 103.347 62.5681 103.363 62.3761 103.384C62.1948 103.395 62.0295 103.411 61.8801 103.432C61.1121 103.528 60.5681 103.699 60.2481 103.944C59.9281 104.179 59.7681 104.52 59.7681 104.968C59.7681 105.341 59.8801 105.624 60.1041 105.816C60.3388 105.997 60.6428 106.088 61.0161 106.088C61.5281 106.088 61.9815 106.003 62.3761 105.832C62.7815 105.651 63.1761 105.416 63.5601 105.128V103.304ZM63.5441 106.248C63.0428 106.536 62.5735 106.771 62.1361 106.952C61.7095 107.123 61.2455 107.208 60.7441 107.208C60.0295 107.208 59.4588 107.037 59.0321 106.696C58.6161 106.344 58.4081 105.768 58.4081 104.968C58.4081 104.552 58.5148 104.189 58.7281 103.88C58.9415 103.571 59.2188 103.315 59.5601 103.112C59.9121 102.899 60.3068 102.733 60.7441 102.616C61.1815 102.499 61.6295 102.424 62.0881 102.392C62.2801 102.371 62.5308 102.355 62.8401 102.344C63.1495 102.323 63.3895 102.307 63.5601 102.296C63.5601 101.923 63.5495 101.592 63.5281 101.304C63.5068 101.005 63.4428 100.755 63.3361 100.552C63.2295 100.339 63.0695 100.179 62.8561 100.072C62.6535 99.9653 62.3601 99.912 61.9761 99.912C61.6668 99.912 61.3681 99.9333 61.0801 99.976C60.7921 100.008 60.5361 100.045 60.3121 100.088C60.0455 100.141 59.8001 100.2 59.5761 100.264L59.3201 99.16C59.5868 99.096 59.8748 99.0373 60.1841 98.984C60.4508 98.9307 60.7601 98.888 61.1121 98.856C61.4641 98.8133 61.8428 98.792 62.2481 98.792C62.7921 98.792 63.2295 98.872 63.5601 99.032C63.9015 99.192 64.1628 99.4107 64.3441 99.688C64.5361 99.9547 64.6641 100.264 64.7281 100.616C64.8028 100.957 64.8401 101.32 64.8401 101.704V105.544C64.8401 105.693 64.8401 105.853 64.8401 106.024C64.8508 106.184 64.8615 106.344 64.8721 106.504C64.8935 106.664 64.9148 106.829 64.9361 107L63.7041 107.128L63.5441 106.248ZM67.3997 95.016L68.6797 94.872V99.64C68.9144 99.48 69.1597 99.3413 69.4157 99.224C69.6291 99.1173 69.8691 99.0213 70.1357 98.936C70.4024 98.84 70.6691 98.792 70.9357 98.792C71.3731 98.792 71.7837 98.8773 72.1677 99.048C72.5624 99.2187 72.9037 99.4747 73.1917 99.816C73.4904 100.157 73.7251 100.589 73.8957 101.112C74.0664 101.635 74.1517 102.253 74.1517 102.968C74.1517 103.757 74.0397 104.424 73.8157 104.968C73.6024 105.501 73.3091 105.933 72.9357 106.264C72.5731 106.595 72.1571 106.835 71.6877 106.984C71.2184 107.133 70.7384 107.208 70.2477 107.208C69.7571 107.208 69.3304 107.171 68.9677 107.096C68.6157 107.032 68.3224 106.957 68.0877 106.872C67.8104 106.765 67.5811 106.648 67.3997 106.52V95.016ZM68.6797 105.816C68.8184 105.869 68.9677 105.917 69.1277 105.96C69.2877 105.992 69.4584 106.024 69.6397 106.056C69.8317 106.077 70.0344 106.088 70.2477 106.088C70.7384 106.088 71.1491 106.019 71.4797 105.88C71.8104 105.741 72.0717 105.539 72.2637 105.272C72.4557 105.005 72.5891 104.685 72.6637 104.312C72.7491 103.928 72.7917 103.501 72.7917 103.032C72.7917 102.659 72.7491 102.285 72.6637 101.912C72.5891 101.539 72.4664 101.208 72.2957 100.92C72.1251 100.621 71.9117 100.381 71.6557 100.2C71.4104 100.008 71.1224 99.912 70.7917 99.912C70.5677 99.912 70.3331 99.96 70.0877 100.056C69.8424 100.141 69.6131 100.243 69.3997 100.36C69.1544 100.488 68.9144 100.632 68.6797 100.792V105.816ZM76.3451 95.016L77.6251 94.872V107H76.3451V95.016ZM86.1953 106.808C85.9499 106.883 85.6939 106.947 85.4273 107C85.1713 107.053 84.8833 107.101 84.5633 107.144C84.2539 107.187 83.9286 107.208 83.5873 107.208C83.0539 107.208 82.5579 107.133 82.0993 106.984C81.6406 106.835 81.2406 106.595 80.8993 106.264C80.5579 105.933 80.2859 105.507 80.0833 104.984C79.8913 104.451 79.7953 103.8 79.7953 103.032C79.7953 102.339 79.8913 101.731 80.0833 101.208C80.2753 100.675 80.5366 100.232 80.8673 99.88C81.2086 99.5173 81.6033 99.2453 82.0513 99.064C82.5099 98.8827 83.0059 98.792 83.5393 98.792C84.0619 98.792 84.5153 98.8933 84.8993 99.096C85.2833 99.2987 85.5979 99.576 85.8433 99.928C86.0993 100.269 86.2859 100.675 86.4033 101.144C86.5313 101.603 86.5953 102.088 86.5953 102.6L86.3553 103.304H81.1873C81.1873 103.635 81.2299 103.965 81.3153 104.296C81.4006 104.627 81.5446 104.925 81.7473 105.192C81.9606 105.459 82.2326 105.677 82.5633 105.848C82.9046 106.008 83.3259 106.088 83.8273 106.088C84.1473 106.088 84.4406 106.072 84.7073 106.04C84.9739 105.997 85.2033 105.955 85.3953 105.912C85.5979 105.859 85.7846 105.8 85.9553 105.736L86.1953 106.808ZM85.2673 102.28C85.2673 102.205 85.2513 102.04 85.2193 101.784C85.1873 101.528 85.1126 101.261 84.9953 100.984C84.8779 100.707 84.6966 100.461 84.4513 100.248C84.2059 100.024 83.8806 99.912 83.4753 99.912C83.0273 99.912 82.6593 100.008 82.3713 100.2C82.0833 100.381 81.8539 100.6 81.6833 100.856C81.5126 101.112 81.3953 101.373 81.3313 101.64C81.2673 101.907 81.2353 102.12 81.2353 102.28H85.2673ZM92.8892 96.088H95.8012C96.9532 96.088 97.7852 96.3013 98.2972 96.728C98.8199 97.1547 99.0812 97.8053 99.0812 98.68C99.0812 99.0853 99.0226 99.4373 98.9052 99.736C98.7986 100.035 98.6759 100.285 98.5372 100.488C98.3772 100.723 98.2012 100.925 98.0092 101.096C98.2652 101.192 98.5052 101.315 98.7292 101.464C98.9532 101.613 99.1506 101.795 99.3212 102.008C99.4919 102.221 99.6252 102.477 99.7212 102.776C99.8279 103.064 99.8812 103.405 99.8812 103.8C99.8812 104.237 99.8226 104.653 99.7052 105.048C99.5879 105.432 99.3906 105.768 99.1132 106.056C98.8359 106.344 98.4679 106.573 98.0092 106.744C97.5506 106.915 96.9799 107 96.2972 107H92.8892V96.088ZM94.2332 100.824H96.9052C97.0546 100.707 97.1879 100.552 97.3052 100.36C97.4119 100.2 97.5079 100.003 97.5932 99.768C97.6786 99.5227 97.7212 99.2293 97.7212 98.888C97.7212 98.2587 97.5559 97.8373 97.2252 97.624C96.9052 97.4 96.4519 97.288 95.8652 97.288H94.2332V100.824ZM94.2332 105.8H96.4092C97.1132 105.8 97.6412 105.619 97.9932 105.256C98.3452 104.893 98.5212 104.408 98.5212 103.8C98.5212 103.533 98.4839 103.288 98.4092 103.064C98.3452 102.84 98.2279 102.648 98.0572 102.488C97.8866 102.317 97.6572 102.184 97.3692 102.088C97.0812 101.992 96.7239 101.944 96.2972 101.944H94.2332V105.8ZM106.636 103.304C106.423 103.315 106.22 103.325 106.028 103.336C105.836 103.347 105.644 103.363 105.452 103.384C105.271 103.395 105.106 103.411 104.956 103.432C104.188 103.528 103.644 103.699 103.324 103.944C103.004 104.179 102.844 104.52 102.844 104.968C102.844 105.341 102.956 105.624 103.18 105.816C103.415 105.997 103.719 106.088 104.092 106.088C104.604 106.088 105.058 106.003 105.452 105.832C105.858 105.651 106.252 105.416 106.636 105.128V103.304ZM106.62 106.248C106.119 106.536 105.65 106.771 105.212 106.952C104.786 107.123 104.322 107.208 103.82 107.208C103.106 107.208 102.535 107.037 102.108 106.696C101.692 106.344 101.484 105.768 101.484 104.968C101.484 104.552 101.591 104.189 101.804 103.88C102.018 103.571 102.295 103.315 102.636 103.112C102.988 102.899 103.383 102.733 103.82 102.616C104.258 102.499 104.706 102.424 105.164 102.392C105.356 102.371 105.607 102.355 105.916 102.344C106.226 102.323 106.466 102.307 106.636 102.296C106.636 101.923 106.626 101.592 106.604 101.304C106.583 101.005 106.519 100.755 106.412 100.552C106.306 100.339 106.146 100.179 105.932 100.072C105.73 99.9653 105.436 99.912 105.052 99.912C104.743 99.912 104.444 99.9333 104.156 99.976C103.868 100.008 103.612 100.045 103.388 100.088C103.122 100.141 102.876 100.2 102.652 100.264L102.396 99.16C102.663 99.096 102.951 99.0373 103.26 98.984C103.527 98.9307 103.836 98.888 104.188 98.856C104.54 98.8133 104.919 98.792 105.324 98.792C105.868 98.792 106.306 98.872 106.636 99.032C106.978 99.192 107.239 99.4107 107.42 99.688C107.612 99.9547 107.74 100.264 107.804 100.616C107.879 100.957 107.916 101.32 107.916 101.704V105.544C107.916 105.693 107.916 105.853 107.916 106.024C107.927 106.184 107.938 106.344 107.948 106.504C107.97 106.664 107.991 106.829 108.012 107L106.78 107.128L106.62 106.248ZM110.492 95.016L111.772 94.872V107H110.492V95.016ZM118.87 103.304C118.657 103.315 118.454 103.325 118.262 103.336C118.07 103.347 117.878 103.363 117.686 103.384C117.505 103.395 117.339 103.411 117.19 103.432C116.422 103.528 115.878 103.699 115.558 103.944C115.238 104.179 115.078 104.52 115.078 104.968C115.078 105.341 115.19 105.624 115.414 105.816C115.649 105.997 115.953 106.088 116.326 106.088C116.838 106.088 117.291 106.003 117.686 105.832C118.091 105.651 118.486 105.416 118.87 105.128V103.304ZM118.854 106.248C118.353 106.536 117.883 106.771 117.446 106.952C117.019 107.123 116.555 107.208 116.054 107.208C115.339 107.208 114.769 107.037 114.342 106.696C113.926 106.344 113.718 105.768 113.718 104.968C113.718 104.552 113.825 104.189 114.038 103.88C114.251 103.571 114.529 103.315 114.87 103.112C115.222 102.899 115.617 102.733 116.054 102.616C116.491 102.499 116.939 102.424 117.398 102.392C117.59 102.371 117.841 102.355 118.15 102.344C118.459 102.323 118.699 102.307 118.87 102.296C118.87 101.923 118.859 101.592 118.838 101.304C118.817 101.005 118.753 100.755 118.646 100.552C118.539 100.339 118.379 100.179 118.166 100.072C117.963 99.9653 117.67 99.912 117.286 99.912C116.977 99.912 116.678 99.9333 116.39 99.976C116.102 100.008 115.846 100.045 115.622 100.088C115.355 100.141 115.11 100.2 114.886 100.264L114.63 99.16C114.897 99.096 115.185 99.0373 115.494 98.984C115.761 98.9307 116.07 98.888 116.422 98.856C116.774 98.8133 117.153 98.792 117.558 98.792C118.102 98.792 118.539 98.872 118.87 99.032C119.211 99.192 119.473 99.4107 119.654 99.688C119.846 99.9547 119.974 100.264 120.038 100.616C120.113 100.957 120.15 101.32 120.15 101.704V105.544C120.15 105.693 120.15 105.853 120.15 106.024C120.161 106.184 120.171 106.344 120.182 106.504C120.203 106.664 120.225 106.829 120.246 107L119.014 107.128L118.854 106.248ZM122.742 100.552C122.752 100.328 122.726 99.8427 122.662 99.096L123.846 98.936L124.022 99.96C124.342 99.7467 124.656 99.56 124.966 99.4C125.286 99.24 125.611 99.1013 125.942 98.984C126.272 98.856 126.592 98.792 126.902 98.792C127.339 98.792 127.702 98.8453 127.99 98.952C128.288 99.048 128.528 99.2133 128.71 99.448C128.891 99.6827 129.019 99.992 129.094 100.376C129.179 100.76 129.222 101.24 129.222 101.816V107H127.942V101.96C127.942 101.64 127.936 101.357 127.926 101.112C127.915 100.856 127.867 100.643 127.782 100.472C127.707 100.291 127.584 100.152 127.414 100.056C127.254 99.96 127.024 99.912 126.726 99.912C126.448 99.912 126.155 99.976 125.846 100.104C125.536 100.221 125.232 100.36 124.934 100.52C124.635 100.68 124.331 100.867 124.022 101.08V107H122.742V100.552ZM136.788 100.12C136.606 100.077 136.356 100.035 136.036 99.992C135.716 99.9387 135.39 99.912 135.06 99.912C134.58 99.912 134.185 100.008 133.876 100.2C133.577 100.392 133.342 100.643 133.172 100.952C133.001 101.251 132.884 101.587 132.82 101.96C132.756 102.323 132.724 102.68 132.724 103.032C132.724 103.576 132.793 104.045 132.932 104.44C133.07 104.824 133.252 105.139 133.476 105.384C133.71 105.629 133.977 105.811 134.276 105.928C134.574 106.035 134.889 106.088 135.22 106.088C135.444 106.088 135.657 106.077 135.86 106.056C136.073 106.024 136.265 105.992 136.436 105.96C136.617 105.917 136.788 105.869 136.948 105.816L137.204 106.888C136.98 106.952 136.772 107.005 136.58 107.048C136.388 107.091 136.158 107.128 135.892 107.16C135.636 107.192 135.358 107.208 135.06 107.208C134.473 107.208 133.95 107.133 133.492 106.984C133.033 106.835 132.644 106.595 132.324 106.264C132.014 105.933 131.774 105.501 131.604 104.968C131.444 104.435 131.364 103.784 131.364 103.016C131.364 102.269 131.465 101.629 131.668 101.096C131.881 100.552 132.158 100.115 132.5 99.784C132.841 99.4427 133.23 99.192 133.668 99.032C134.116 98.872 134.58 98.792 135.06 98.792C135.316 98.792 135.561 98.808 135.796 98.84C136.041 98.8613 136.254 98.888 136.436 98.92C136.649 98.9627 136.852 99.0053 137.044 99.048L136.788 100.12ZM144.865 106.808C144.619 106.883 144.363 106.947 144.097 107C143.841 107.053 143.553 107.101 143.233 107.144C142.923 107.187 142.598 107.208 142.257 107.208C141.723 107.208 141.227 107.133 140.769 106.984C140.31 106.835 139.91 106.595 139.569 106.264C139.227 105.933 138.955 105.507 138.753 104.984C138.561 104.451 138.465 103.8 138.465 103.032C138.465 102.339 138.561 101.731 138.753 101.208C138.945 100.675 139.206 100.232 139.537 99.88C139.878 99.5173 140.273 99.2453 140.721 99.064C141.179 98.8827 141.675 98.792 142.209 98.792C142.731 98.792 143.185 98.8933 143.569 99.096C143.953 99.2987 144.267 99.576 144.513 99.928C144.769 100.269 144.955 100.675 145.073 101.144C145.201 101.603 145.265 102.088 145.265 102.6L145.025 103.304H139.857C139.857 103.635 139.899 103.965 139.985 104.296C140.07 104.627 140.214 104.925 140.417 105.192C140.63 105.459 140.902 105.677 141.233 105.848C141.574 106.008 141.995 106.088 142.497 106.088C142.817 106.088 143.11 106.072 143.377 106.04C143.643 105.997 143.873 105.955 144.065 105.912C144.267 105.859 144.454 105.8 144.625 105.736L144.865 106.808ZM143.937 102.28C143.937 102.205 143.921 102.04 143.889 101.784C143.857 101.528 143.782 101.261 143.665 100.984C143.547 100.707 143.366 100.461 143.121 100.248C142.875 100.024 142.55 99.912 142.145 99.912C141.697 99.912 141.329 100.008 141.041 100.2C140.753 100.381 140.523 100.6 140.353 100.856C140.182 101.112 140.065 101.373 140.001 101.64C139.937 101.907 139.905 102.12 139.905 102.28H143.937Z" fill="#1D1D21"/>
<path d="M33.36 141.4V139.168C36.936 138.76 38.328 136.672 38.328 134.368C38.328 132.016 37.176 130.24 33.792 129.592L30.936 129.04C29.064 128.68 28.632 128.44 28.632 127.408C28.632 126.4 29.28 125.944 31.344 125.944C33.72 125.944 34.416 126.496 34.416 128.176V128.44H37.968V128.248C37.968 125.536 36.576 123.424 33.36 122.848V120.52H30.024V122.776C26.472 123.232 25.056 125.368 25.056 127.552C25.056 130.048 26.352 131.608 29.424 132.136L32.256 132.64C34.512 133.024 34.752 133.408 34.752 134.488C34.752 135.568 34.248 135.976 32.208 135.976C29.304 135.976 28.656 135.472 28.656 133.696V133.456H25.128V133.768C25.128 136.768 26.688 138.616 30.024 139.096V141.4H33.36ZM46.8514 139.24C51.2194 139.24 53.7394 137.704 53.7394 134.56C53.7394 132.208 52.1794 131.056 50.6194 130.6V130.456C52.1314 130.192 53.2114 128.92 53.2114 127.024C53.2114 124.48 51.2194 122.68 46.8754 122.68C42.5314 122.68 40.5394 124.48 40.5394 127.024C40.5394 128.92 41.6194 130.192 43.1314 130.456V130.6C41.5474 131.056 40.0114 132.208 40.0114 134.56C40.0114 137.704 42.5074 139.24 46.8514 139.24ZM46.8754 129.496C44.7874 129.496 44.1154 128.944 44.1154 127.72C44.1154 126.496 44.7874 125.944 46.8754 125.944C48.9394 125.944 49.6114 126.496 49.6114 127.72C49.6114 128.944 48.9394 129.496 46.8754 129.496ZM46.8754 136C44.2594 136 43.6594 135.352 43.6594 133.96C43.6594 132.568 44.2594 131.944 46.8754 131.944C49.4674 131.944 50.0914 132.568 50.0914 133.96C50.0914 135.352 49.4674 136 46.8754 136ZM62.6434 139.24C67.5154 139.24 69.4114 136.888 69.4114 133.6C69.4114 130.408 67.5154 128.416 63.9634 128.416C61.7794 128.416 60.3874 129.088 59.7634 129.664H59.6674L59.9314 126.16H68.5474V122.92H56.7394L56.2594 131.848L59.4514 132.28C59.9794 131.968 61.1554 131.464 62.7634 131.464C65.0194 131.464 65.8834 132.04 65.8834 133.72C65.8834 135.352 65.0914 135.952 62.8114 135.952C60.6754 135.952 59.7154 135.568 59.7154 134.392V134.2H56.1394V134.392C56.1394 137.368 58.2994 139.24 62.6434 139.24ZM84.8276 139V135.76H78.6836L76.0916 135.808C76.0916 135.04 77.0756 134.536 78.3956 133.936L80.8196 132.88C82.9076 131.944 84.8756 130.528 84.8756 127.744C84.8756 124.84 83.1716 122.68 78.9236 122.68C74.1476 122.68 72.2276 125.248 72.2276 128.368V128.752H75.8276V128.344C75.8276 126.616 76.3076 125.968 78.6356 125.968C80.7716 125.968 81.2996 126.616 81.2996 127.768C81.2996 128.824 80.7956 129.352 79.3796 130.024L76.5956 131.344C74.3636 132.424 72.2516 133.72 72.2516 136.84V139H84.8276ZM94.9545 139.24C99.5625 139.24 102.154 135.976 102.154 130.96C102.154 125.968 99.5625 122.68 94.9545 122.68C90.3225 122.68 87.7305 125.968 87.7305 130.96C87.7305 135.976 90.3225 139.24 94.9545 139.24ZM94.9545 135.76C92.4825 135.76 91.5705 134.776 91.5705 130.96C91.5705 127.144 92.4825 126.16 94.9545 126.16C97.4025 126.16 98.3145 127.144 98.3145 130.96C98.3145 134.776 97.4025 135.76 94.9545 135.76ZM109.164 139V134.752H104.652V139H109.164ZM118.883 139.24C123.491 139.24 126.083 135.976 126.083 130.96C126.083 125.968 123.491 122.68 118.883 122.68C114.251 122.68 111.659 125.968 111.659 130.96C111.659 135.976 114.251 139.24 118.883 139.24ZM118.883 135.76C116.411 135.76 115.499 134.776 115.499 130.96C115.499 127.144 116.411 126.16 118.883 126.16C121.331 126.16 122.243 127.144 122.243 130.96C122.243 134.776 121.331 135.76 118.883 135.76ZM136.73 139.24C141.338 139.24 143.93 135.976 143.93 130.96C143.93 125.968 141.338 122.68 136.73 122.68C132.098 122.68 129.506 125.968 129.506 130.96C129.506 135.976 132.098 139.24 136.73 139.24ZM136.73 135.76C134.258 135.76 133.346 134.776 133.346 130.96C133.346 127.144 134.258 126.16 136.73 126.16C139.178 126.16 140.09 127.144 140.09 130.96C140.09 134.776 139.178 135.76 136.73 135.76Z" fill="#1D1D21"/>
<defs>
<linearGradient id="paint0_linear_136_1326" x1="285.472" y1="24" x2="285.472" y2="51.6778" gradientUnits="userSpaceOnUse">
<stop stop-color="#BDBDBD"/>
<stop offset="0.526042" stop-color="white"/>
<stop offset="1" stop-color="#BDBDBD"/>
</linearGradient>
</defs>
</svg>
