<svg width="60" height="23" viewBox="0 0 60 23" fill="none" xmlns="http://www.w3.org/2000/svg">
<path d="M43.6125 2.55312C42.2161 2.04834 40.7417 1.79382 39.2569 1.80124C34.4625 1.80124 31.0744 4.22374 31.0538 7.69062C31.0144 10.2387 33.4556 11.675 35.3006 12.5337C37.1962 13.4131 37.83 13.9606 37.8206 14.7406C37.8112 15.9425 36.3056 16.4787 34.92 16.4787C32.9944 16.4787 31.95 16.2162 30.3394 15.5412L29.7413 15.2581L29.0588 19.2631C30.2306 19.7412 32.3306 20.1612 34.4981 20.2006C39.6056 20.2006 42.9356 17.7987 42.9731 14.0956C43.0125 12.065 41.7056 10.5237 38.9212 9.25249C37.2412 8.43312 36.1894 7.87437 36.1894 7.03437C36.1894 6.29187 37.0875 5.51187 38.9625 5.51187C40.2068 5.4807 41.4439 5.70998 42.5944 6.185L43.0537 6.38937L43.7269 2.5325L43.6125 2.55312ZM56.0756 2.13312H52.3256C51.1537 2.13312 50.2837 2.44624 49.7662 3.60874L42.5587 19.9456H47.6569L48.6844 17.27L54.9037 17.2794C55.0594 17.9037 55.4981 19.9437 55.4981 19.9437H60L56.0756 2.13312ZM24.15 1.98687H29.0044L25.9669 19.8069H21.1125L24.15 1.97749V1.98687ZM11.8069 11.8006L12.3037 14.2812L17.0587 2.13312H22.2056L14.5481 19.9156H9.42375L5.22375 4.85749C5.19157 4.73241 5.13424 4.6152 5.05526 4.51301C4.97628 4.41081 4.87731 4.32579 4.76437 4.26312C3.25572 3.47845 1.6553 2.88451 0 2.49499L0.058125 2.12187H7.89C8.94563 2.16125 9.80438 2.49499 10.0969 3.62749L11.8069 11.81V11.8006ZM50.0681 13.6269L52.0125 8.63749C51.9825 8.68437 52.4119 7.61187 52.6556 6.93687L52.9875 8.46874L54.1125 13.6156H50.0681V13.6269Z" fill="white"/>
</svg>
