<svg width="56" height="56" viewBox="0 0 56 56" fill="none" xmlns="http://www.w3.org/2000/svg">
<rect width="56" height="56" rx="10" fill="#F5F5F5"/>
<rect x="8" y="8" width="40" height="40" rx="20" fill="#A7F4FE"/>
<path d="M35.2 23.2H20.2V22.6L33.4 21.544V22.6H35.2V20.8C35.2 19.48 34.1308 18.5536 32.8252 18.7396L20.776 20.4604C19.4692 20.6476 18.4 21.88 18.4 23.2V35.2C18.4 35.8365 18.6529 36.447 19.103 36.897C19.5531 37.3471 20.1635 37.6 20.8 37.6H35.2C35.8365 37.6 36.447 37.3471 36.8971 36.897C37.3472 36.447 37.6 35.8365 37.6 35.2V25.6C37.6 24.9635 37.3472 24.353 36.8971 23.9029C36.447 23.4528 35.8365 23.2 35.2 23.2ZM33.4 31.6072C33.1636 31.6071 32.9294 31.5605 32.711 31.4699C32.4926 31.3793 32.2941 31.2466 32.127 31.0794C31.9598 30.9121 31.8273 30.7136 31.7369 30.4951C31.6464 30.2766 31.5999 30.0424 31.6 29.806C31.6001 29.5695 31.6468 29.3354 31.7373 29.117C31.8279 28.8985 31.9606 28.7001 32.1278 28.5329C32.2951 28.3658 32.4936 28.2332 32.7121 28.1428C32.9306 28.0524 33.1648 28.0059 33.4012 28.006C33.8788 28.0061 34.3367 28.196 34.6743 28.5338C35.0118 28.8716 35.2014 29.3296 35.2012 29.8072C35.2011 30.2847 35.0112 30.7427 34.6734 31.0802C34.3356 31.4178 33.8776 31.6073 33.4 31.6072Z" fill="black"/>
</svg>
