<svg width="56" height="56" viewBox="0 0 56 56" fill="none" xmlns="http://www.w3.org/2000/svg">
<rect width="56" height="56" rx="10" fill="#F5F5F5"/>
<rect x="8" y="8" width="40" height="40" rx="20" fill="#FECCA7"/>
<path d="M28 26C26.9 26 26 26.9 26 28C26 29.1 26.9 30 28 30C29.1 30 30 29.1 30 28C30 26.9 29.1 26 28 26ZM34 26C32.9 26 32 26.9 32 28C32 29.1 32.9 30 34 30C35.1 30 36 29.1 36 28C36 26.9 35.1 26 34 26ZM22 26C20.9 26 20 26.9 20 28C20 29.1 20.9 30 22 30C23.1 30 24 29.1 24 28C24 26.9 23.1 26 22 26Z" fill="black"/>
</svg>
