<svg width="56" height="56" viewBox="0 0 56 56" fill="none" xmlns="http://www.w3.org/2000/svg">
<rect width="56" height="56" rx="10" fill="#F5F5F5"/>
<rect x="8" y="8" width="40" height="40" rx="20" fill="#A7FED9"/>
<path d="M33.625 23.5H28.75V30.6892L31.2198 28.2198C31.3616 28.0851 31.5505 28.0111 31.746 28.0136C31.9416 28.0161 32.1285 28.0949 32.2668 28.2332C32.4051 28.3715 32.4839 28.5584 32.4864 28.754C32.4889 28.9495 32.4149 29.1384 32.2802 29.2802L28.5302 33.0302C28.3895 33.1707 28.1988 33.2497 28 33.2497C27.8012 33.2497 27.6105 33.1707 27.4698 33.0302L23.7198 29.2802C23.5851 29.1384 23.5111 28.9495 23.5136 28.754C23.5161 28.5584 23.5949 28.3715 23.7332 28.2332C23.8715 28.0949 24.0584 28.0161 24.254 28.0136C24.4495 28.0111 24.6384 28.0851 24.7802 28.2198L27.25 30.6892V23.5H22.375C21.679 23.5007 21.0118 23.7775 20.5197 24.2697C20.0275 24.7618 19.7507 25.429 19.75 26.125V35.875C19.7507 36.571 20.0275 37.2382 20.5197 37.7303C21.0118 38.2225 21.679 38.4993 22.375 38.5H33.625C34.321 38.4993 34.9882 38.2225 35.4803 37.7303C35.9725 37.2382 36.2493 36.571 36.25 35.875V26.125C36.2493 25.429 35.9725 24.7618 35.4803 24.2697C34.9882 23.7775 34.321 23.5007 33.625 23.5ZM28.75 18.25C28.75 18.0511 28.671 17.8603 28.5303 17.7197C28.3897 17.579 28.1989 17.5 28 17.5C27.8011 17.5 27.6103 17.579 27.4697 17.7197C27.329 17.8603 27.25 18.0511 27.25 18.25V23.5H28.75V18.25Z" fill="#131313"/>
</svg>
