<svg width="56" height="56" viewBox="0 0 56 56" fill="none" xmlns="http://www.w3.org/2000/svg">
<rect width="56" height="56" rx="10" fill="#F5F5F5"/>
<rect x="8" y="8" width="40" height="40" rx="20" fill="#EBB3FF"/>
<path d="M36.7825 19.2175C36.6813 19.1168 36.5534 19.047 36.4139 19.0165C36.2744 18.9859 36.1291 18.9958 35.995 19.045L19.495 25.045C19.3527 25.099 19.2302 25.195 19.1437 25.3202C19.0573 25.4455 19.011 25.5941 19.011 25.7463C19.011 25.8985 19.0573 26.047 19.1437 26.1723C19.2302 26.2975 19.3527 26.3935 19.495 26.4475L25.9375 29.02L30.6925 24.25L31.75 25.3075L26.9725 30.085L29.5525 36.5275C29.6081 36.6671 29.7043 36.7867 29.8286 36.871C29.953 36.9552 30.0998 37.0002 30.25 37C30.4016 36.9969 30.5486 36.9479 30.6718 36.8596C30.795 36.7712 30.8885 36.6476 30.94 36.505L36.94 20.005C36.9911 19.8723 37.0034 19.7278 36.9755 19.5884C36.9477 19.449 36.8807 19.3203 36.7825 19.2175Z" fill="#131313"/>
</svg>
