<svg width="196" height="168" viewBox="0 0 196 168" fill="none" xmlns="http://www.w3.org/2000/svg">
<path d="M-1.52588e-05 54.1936C-1.52588e-05 24.2633 24.2633 0 54.1935 0C84.1238 0 108.387 24.2633 108.387 54.1936V108.387H54.1935C24.2632 108.387 -1.52588e-05 84.1238 -1.52588e-05 54.1936Z" fill="#A7FED9"/>
<path d="M195.097 72.2581C195.097 52.3045 178.921 36.129 158.968 36.129C139.014 36.129 122.839 52.3045 122.839 72.2581V108.387H158.968C178.921 108.387 195.097 92.2116 195.097 72.2581Z" fill="#EBB3FF"/>
<path d="M66.8388 147.226C66.8388 158.699 76.1397 168 87.613 168C99.0863 168 108.387 158.699 108.387 147.226V126.452H87.613C76.1397 126.452 66.8388 135.753 66.8388 147.226Z" fill="white"/>
</svg>
